<svg xmlns="http://www.w3.org/2000/svg" height="40" viewBox="0 96 960 960" width="40"><path d="m199.999 502.333 96.667 41.001Q313.333 510 332 478t40-62l-71.334-14.334-100.667 100.667Zm150 81.667 126.668 126.334q52-22.667 101.333-55.667 49.334-33 84-67.666 77.334-77.334 115.833-162.501 38.5-85.166 38.834-180.5-95.334.333-180.667 38.833-85.334 38.5-162.667 115.834-34.667 34.666-67.667 83.999Q372.666 532 349.999 584ZM562 498.333q-20.999-21-20.999-51.833 0-30.834 20.999-51.834 21-20.999 52-20.999t52 20.999q21 21 21 51.834 0 30.833-21 51.833t-52 21q-31 0-52-21Zm-3.667 362.334L659 760l-14.333-71.334q-30 21.334-62 39.834-32.001 18.5-65.334 35.167l41 97ZM880 180.333q12.333 131.001-30.5 243.834T706 637.667L704.667 639l-1.334 1.333 21.334 106.334Q728 763.334 723 779q-5 15.667-17 27.667L536 977.333l-84.667-197.666L281 609.333 83.333 524.667l170.334-170q12-12 27.833-17 15.833-5 32.5-1.667l106.333 21.333q.667-.666 1.334-1 .666-.333 1.333-1 100.667-100.666 213.333-144Q749 168 880 180.333Zm-728.333 552q35-35 85.5-35.5t85.5 34.5q35 35 34.5 85.5t-35.5 85.5q-25.667 25.667-81.5 43-55.834 17.334-162.834 32Q92 870.333 109 814.167q17-56.167 42.667-81.834Zm46.999 47.333Q185.999 793 175.333 823.167q-10.667 30.166-17.334 72.5Q200.333 889 230.5 878.5q30.167-10.5 43.5-23.166 16.667-15.334 17.334-38.001Q292 794.666 276 778q-16.667-16-39.334-15.5-22.666.5-38 17.166Z"/></svg>