<svg xmlns="http://www.w3.org/2000/svg" height="40" viewBox="0 96 960 960" width="40"><path d="M624 527.333q23.333 0 39.667-16.333Q680 494.667 680 471.333q0-23.333-16.333-39.666-16.334-16.334-39.667-16.334-23.333 0-39.666 16.334Q568 448 568 471.333q0 23.334 16.334 39.667 16.333 16.333 39.666 16.333Zm-288 0q23.333 0 39.666-16.333Q392 494.667 392 471.333q0-23.333-16.334-39.666-16.333-16.334-39.666-16.334t-39.667 16.334Q280 448 280 471.333q0 23.334 16.333 39.667 16.334 16.333 39.667 16.333Zm144 268q66.667 0 122.167-36.5t80.5-98.166H626q-22.666 39-61.5 60.5-38.833 21.5-84.167 21.5-45.333 0-84.5-21.167-39.167-21.166-61.167-60.833h-57.333q25.667 61.666 80.834 98.166 55.166 36.5 121.833 36.5ZM480 976q-83 0-156-31.5T197 859q-54-54-85.5-127T80 576q0-83 31.5-156T197 293q54-54 127-85.5T480 176q83 0 156 31.5T763 293q54 54 85.5 127T880 576q0 83-31.5 156T763 859q-54 54-127 85.5T480 976Zm0-400Zm0 333.334q139.583 0 236.459-96.875Q813.334 715.583 813.334 576t-96.875-236.459Q619.583 242.666 480 242.666t-236.459 96.875Q146.666 436.417 146.666 576t96.875 236.459Q340.417 909.334 480 909.334Z"/></svg>